<svg id="Layer_1" data-name="Layer 1" xmlns="http://www.w3.org/2000/svg" viewBox="0 0 1943.52 1154.42"><defs><style>.cls-1,.cls-2{fill:#103089;}.cls-2{opacity:0.4;}</style></defs><path class="cls-1" d="M1643.62,805.43a49.47,49.47,0,0,1-2.21,14.71,45.45,45.45,0,0,1-4,9.34,48.3,48.3,0,0,1-8.32,11.17,49.9,49.9,0,0,1-64,5.67.86.86,0,0,1-.31-.24c-1.9-1.5-3.78-3-5.62-4.63,0,0,0,0-.06,0-4.29-3.6-8.53-7.24-12.67-11A529.24,529.24,0,0,1,1405,626.22c-24.49,26.65-53.27,51.22-85.72,73.21a611.29,611.29,0,0,1-91.64,51.06,582.9,582.9,0,0,1-86.22-53.76,467.21,467.21,0,0,1-72.74-67.93A428.81,428.81,0,0,1,935.49,817q-13.23,10.78-27.32,20.51c-5.52,3.8-11.17,7.5-16.89,11.06a48.78,48.78,0,0,1-65.09-34.07,47.94,47.94,0,0,1-1.36-11.39A48.52,48.52,0,0,1,838.71,769q4.72-2.92,9.37-6c2.78-1.82,5.54-3.69,8.25-5.62A332.62,332.62,0,0,0,997.9,501.51c.13-2.55.21-5.08.29-7.63v0c.08-3.07.13-6.14.13-9.24q0-9-.5-17.91v0A48.76,48.76,0,0,1,1085,452c2.45,8,5.28,15.87,8.41,23.68a.12.12,0,0,1,0,.08.38.38,0,0,0,.08.18v0c26,64.59,74.2,122.79,138.64,170.44,61.65-41.56,110.27-92.29,141.26-148.94q6.87-12.57,12.55-25.48a.13.13,0,0,0,0-.06q2.85-6.39,5.34-12.88a50.09,50.09,0,0,1,77.29-11.37c.26.23.52.49.76.73a6,6,0,0,1,0-.73,60.52,60.52,0,0,1,8.8,12,57.21,57.21,0,0,1,6.63,19.21,53.43,53.43,0,0,1,.4,10.54c-.53,3.15-.94,6.64-1.2,10.36a105.17,105.17,0,0,0,0,13.77,370.41,370.41,0,0,0,136.24,249.53,49.75,49.75,0,0,1,10,8.19,48.77,48.77,0,0,1,4.24,5.24h0A49.77,49.77,0,0,1,1643.62,805.43Z"/><path class="cls-1" d="M737.55,104.68a47.71,47.71,0,0,1-39.35,47,46.48,46.48,0,0,1-8.38.76c-.79,0-1.57,0-2.35-.06a.69.69,0,0,1-.13,0c-.75-.05-1.51-.1-2.29-.13-6.53-.41-13.14-.6-19.78-.6-183.94,0-333,149.13-333,333.05A333.58,333.58,0,0,0,337,540.81a329.4,329.4,0,0,0,23.24,77.63,334.46,334.46,0,0,0,115.37,140s.06.05.06.05a47.43,47.43,0,0,1,10.59,7s0,0,.08,0a49.22,49.22,0,0,1-43.88,84.92l0,0q-14.52-8.82-28.18-18.79h0C306.8,753.85,237,627.39,237,484.62q0-14.21.91-28.19C250,270,381.34,116.1,556.46,70.24A428.52,428.52,0,0,1,665.27,56.29q12.27,0,24.39.68h.16c2.1.13,4.21.26,6.32.42h.05A47.76,47.76,0,0,1,730,79,47.29,47.29,0,0,1,737.55,104.68Z"/><path class="cls-2" d="M665.27,207.66c-152.95,0-277,124-277,277a276.19,276.19,0,0,0,97.05,210.54c1.51,1.31,3,2.58,4.58,3.83s2.92,2.37,4.4,3.54q9,7.1,18.63,13.45l3.12,2a278.39,278.39,0,0,0,27.26,15.32c1,.53,2,1,3.09,1.51,2.68,1.28,5.39,2.5,8.12,3.7,1,.47,2.11.91,3.15,1.35,2.94,1.25,5.94,2.45,8.95,3.59,1,.42,2.08.81,3.13,1.17.65.26,1.32.5,2,.73,1,.37,2,.71,2.94,1,2.92,1,5.85,2,8.82,2.89,1,.32,2,.6,3,.89,4.86,1.45,9.81,2.76,14.8,3.93,1.1.26,2.16.52,3.26.75,1.46.34,2.89.63,4.34.94,18.19,3.77,10.44-27.33,29.75-27.33,16,0,61.91-3.17,74.64-2.39,12.13-2.06,10.33,28.76,34.2,23l.62-.16c1.56-.49,3.1-1,4.66-1.51,1.93-.65,3.88-1.3,5.8-2,1.72-.6,3.44-1.25,5.16-1.9,1.48-.55,3-1.15,4.45-1.72l1.3-.55c1.41-.57,2.83-1.15,4.22-1.74a.93.93,0,0,1,.31-.13c1.4-.6,2.78-1.2,4.16-1.82l1.59-.71,3.88-1.79.62-.31,4.48-2.19q9.76-4.87,19-10.47c1.56-.91,3.09-1.87,4.63-2.83,1.35-.86,2.73-1.72,4.09-2.6a6.15,6.15,0,0,1,.62-.42c1.35-.88,2.71-1.8,4.06-2.73.16-.08.31-.21.47-.31,1.22-.84,2.45-1.7,3.67-2.58s2.42-1.72,3.62-2.6c1.4-1,2.78-2,4.13-3.1,1-.78,2.06-1.56,3.07-2.37l2.66-2.11c2.81-2.23,5.57-4.55,8.28-6.92q2.19-1.92,4.29-3.82c1.46-1.33,2.94-2.68,4.37-4.07s2.87-2.73,4.27-4.13c1.77-1.75,3.54-3.54,5.23-5.34.92-.91,1.8-1.85,2.66-2.78.28-.29.54-.58.8-.86l3-3.36c.28-.29.55-.6.81-.91,1.22-1.38,2.44-2.79,3.64-4.19s2.55-3.05,3.8-4.58,2.5-3.07,3.72-4.66,2.45-3.15,3.62-4.74,2.36-3.17,3.51-4.81,2.29-3.23,3.41-4.89c1-1.46,2-2.94,3-4.45,1.41-2.14,2.76-4.3,4.11-6.48q1.29-2.09,2.53-4.19c.81-1.38,1.61-2.79,2.42-4.2q1.75-3.08,3.43-6.24c.81-1.51,1.59-3,2.38-4.53,1.94-3.83,3.82-7.73,5.61-11.66.81-1.82,1.65-3.67,2.42-5.52s1.51-3.59,2.24-5.41c.11-.28.24-.57.34-.83.6-1.51,1.17-3,1.77-4.58l.31-.83c.66-1.75,1.28-3.52,1.91-5.29.77-2.21,1.53-4.42,2.23-6.66.45-1.36.86-2.7,1.28-4.09a12.83,12.83,0,0,0,.39-1.3c.49-1.56.94-3.14,1.37-4.73a262.34,262.34,0,0,0,5.92-25.95c.31-1.59.57-3.23.83-4.84.34-2.06.65-4.09.91-6.17s.54-4.14.78-6.19c.21-1.88.41-3.75.57-5.63,0-.41.1-.83.13-1.25.16-1.89.31-3.77.45-5.67s.23-3.56.31-5.36c.13-2.44.2-4.89.26-7.34q.08-3.19.08-6.4C942.24,331.67,818.22,207.66,665.27,207.66ZM730.35,715H615.22a17.87,17.87,0,1,1,0-35.73H730.35C753.49,678.93,753.55,715.34,730.35,715Zm120.3-226.4c-2.16,29.9-15.1,58.06-15.1,58.06-9.47,20.61-20.32,33.34-34.14,49.24-32.66,37.63-56.6,65.23-85.75,63.53-16.27-1-20.87-10.25-41.28-8.74-19.65,1.45-23.24,10.64-38.62,11.37-5.7.26-18.71-.36-55.07-32-25.24-22-39.12-34.07-53.19-55.59-3-4.55-29.34-45.57-31.7-85.86-4.35-74,70.21-177.44,177.41-177.44C787.31,311.19,855,428.43,850.65,488.6Z"/><path class="cls-1" d="M665.27,207.66c-152.95,0-277,124-277,277a276.19,276.19,0,0,0,97.05,210.54c1.51,1.31,3,2.58,4.58,3.83s2.92,2.37,4.4,3.54q9,7.1,18.63,13.45l3.12,2a278.39,278.39,0,0,0,27.26,15.32c1,.53,2,1,3.09,1.51,2.68,1.28,5.39,2.5,8.12,3.7,1,.47,2.11.91,3.15,1.35,2.94,1.25,5.94,2.45,8.95,3.59,1,.42,2.08.81,3.13,1.17.65.26,1.32.5,2,.73,1,.37,2,.71,2.94,1,2.92,1,5.85,2,8.82,2.89,1,.32,2,.6,3,.89,4.86,1.45,9.81,2.76,14.8,3.93,1.1.26,2.16.52,3.26.75,1.46.34,2.89.63,4.34.94,18.19,3.77,10.44-27.33,29.75-27.33,16,0,61.91-3.17,74.64-2.39,12.13-2.06,10.33,28.76,34.2,23l.62-.16c1.56-.49,3.1-1,4.66-1.51,1.93-.65,3.88-1.3,5.8-2,1.72-.6,3.44-1.25,5.16-1.9,1.48-.55,3-1.15,4.45-1.72l1.3-.55c1.41-.57,2.83-1.15,4.22-1.74a.93.93,0,0,1,.31-.13c1.4-.6,2.78-1.2,4.16-1.82l1.59-.71,3.88-1.79.62-.31,4.48-2.19q9.76-4.87,19-10.47c1.56-.91,3.09-1.87,4.63-2.83,1.35-.86,2.73-1.72,4.09-2.6a6.15,6.15,0,0,1,.62-.42c1.35-.88,2.71-1.8,4.06-2.73.16-.08.31-.21.47-.31,1.22-.84,2.45-1.7,3.67-2.58s2.42-1.72,3.62-2.6c1.4-1,2.78-2,4.13-3.1,1-.78,2.06-1.56,3.07-2.37l2.66-2.11c2.81-2.23,5.57-4.55,8.28-6.92q2.19-1.92,4.29-3.82c1.46-1.33,2.94-2.68,4.37-4.07s2.87-2.73,4.27-4.13c1.77-1.75,3.54-3.54,5.23-5.34.92-.91,1.8-1.85,2.66-2.78.28-.29.54-.58.8-.86l3-3.36c.28-.29.55-.6.81-.91,1.22-1.38,2.44-2.79,3.64-4.19s2.55-3.05,3.8-4.58,2.5-3.07,3.72-4.66,2.45-3.15,3.62-4.74,2.36-3.17,3.51-4.81,2.29-3.23,3.41-4.89c1-1.46,2-2.94,3-4.45,1.41-2.14,2.76-4.3,4.11-6.48q1.29-2.09,2.53-4.19c.81-1.38,1.61-2.79,2.42-4.2q1.75-3.08,3.43-6.24c.81-1.51,1.59-3,2.38-4.53,1.94-3.83,3.82-7.73,5.61-11.66.81-1.82,1.65-3.67,2.42-5.52s1.51-3.59,2.24-5.41c.11-.28.24-.57.34-.83.6-1.51,1.17-3,1.77-4.58l.31-.83c.66-1.75,1.28-3.52,1.91-5.29.77-2.21,1.53-4.42,2.23-6.66.45-1.36.86-2.7,1.28-4.09a12.83,12.83,0,0,0,.39-1.3c.49-1.56.94-3.14,1.37-4.73a262.34,262.34,0,0,0,5.92-25.95c.31-1.59.57-3.23.83-4.84.34-2.06.65-4.09.91-6.17s.54-4.14.78-6.19c.21-1.88.41-3.75.57-5.63,0-.41.1-.83.13-1.25.16-1.89.31-3.77.45-5.67s.23-3.56.31-5.36c.13-2.44.2-4.89.26-7.34q.08-3.19.08-6.4C942.24,331.67,818.22,207.66,665.27,207.66ZM730.35,715H615.22a17.87,17.87,0,1,1,0-35.73H730.35C753.49,678.93,753.55,715.34,730.35,715Zm120.3-226.4c-2.16,29.9-15.1,58.06-15.1,58.06-9.47,20.61-20.32,33.34-34.14,49.24-32.66,37.63-56.6,65.23-85.75,63.53-16.27-1-20.87-10.25-41.28-8.74-19.65,1.45-23.24,10.64-38.62,11.37-5.7.26-18.71-.36-55.07-32-25.24-22-39.12-34.07-53.19-55.59-3-4.55-29.34-45.57-31.7-85.86-4.35-74,70.21-177.44,177.41-177.44C787.31,311.19,855,428.43,850.65,488.6Z"/><path class="cls-2" d="M475.63,758.46a47.43,47.43,0,0,1,10.59,7C482.65,763.22,479.11,760.85,475.63,758.46Z"/><path class="cls-2" d="M1630.19,771.31c-3.38-2.68-6.69-5.41-10-8.19A49.75,49.75,0,0,1,1630.19,771.31Z"/></svg>