<svg id="Layer_1" data-name="Layer 1" xmlns="http://www.w3.org/2000/svg" viewBox="0 0 3214.85 2674.17"><path d="M1147,1383c-140.16,52.59-236.78,32.81-300.72-57.71C790.61,1246.47,795.43,1140,858,1067.21c63.24-73.56,170-96.06,256.46-54.07,99.65,48.39,138,139,111.44,269.06,184.77-129.4,366.73-130.87,551.58,7.24-19.09-61-22.08-119.08,5.52-175.61s71.3-93.6,131-112.31c91.68-28.72,189.09,6.65,243.85,88.47,51.46,76.89,45.71,177.38-14.26,249.66-66.59,80.26-163.83,95.14-292,42,10.16,25.1,18.54,47.22,28,68.83,8,18.08,22.73,9,35.09,7,160.39-25.71,310.39,47,389.82,189.07,34.36,61.46,46.42,127.52,41.47,197.29-1.47,20.81-11.61,34.57-32,36.87-21.77,2.45-36.61-9.57-42-30.47-3-11.71-3-24.32-3.37-36.56-4.93-174.73-161.87-305.25-335.16-279.12-22.69,3.42-32.88,13.32-32.51,37.36,1.14,73.79.43,147.61.88,221.42.21,33.86-3.93,66.32-37.69,83.46-31.48,16-59.45,4.18-87.58-14-183.16-118.19-367.3-117.55-551.56-1.94-16.06,10.08-31.4,21.5-51.09,24.12-41.6,5.55-73.27-23.61-73.76-70.78-.82-78.27-1.33-156.59.41-234.84.71-31.91-12.21-42.68-42.47-46-167.14-18.36-295.55,97.5-320,225-4.6,24-3.94,48.92-5.89,73.4-2,25.5-10.24,48.56-40,48.64-31.66.08-39.46-24.08-41.18-50.88-11-170.86,131.73-344.89,304.63-372.78,43.64-7,87-8.63,129.88,1.25,23.82,5.49,35.39-1.44,41.68-24.16C1131.62,1418.12,1139,1403.2,1147,1383Zm673.56,271.83H1820c0-26.81.08-53.63,0-80.44-.37-96.58-37.69-176.19-112.91-236.38-100.58-80.49-213.36-92.7-331.56-48.52-111.11,41.53-173.62,125-192,241.77-11.75,74.44-4.13,149.43-5.56,224.16-.76,39.43.25,39.36,35.44,19.56,107.87-60.7,222.19-91.57,347-76.81,80.1,9.47,154,36.2,223.53,76,35.75,20.47,36.47,20.11,36.7-22.19C1820.72,1719.64,1820.58,1687.24,1820.58,1654.84Zm156-319c75.19.47,136.29-58.11,136.78-131.15.49-72.26-61.53-133.52-135.17-133.52-73.92,0-135.7,60-136.23,132.45C1841.44,1278,1899.89,1335.4,1976.61,1335.88Zm-821.19-132.46c-.23-73.5-58.1-131.73-131.39-132.2-76.42-.49-135.46,56.64-135.76,131.38-.3,75.72,57.22,133.1,133.48,133.14C1098.59,1335.79,1155.66,1279.3,1155.42,1203.42Z"/><path d="M1496.93,724.67c123.35-.27,217.73,90.44,218.39,209.89.67,121-95.4,216.63-216.84,216-118.12-.65-216-96.18-216.47-211.35C1281.48,820.09,1376.83,724.93,1496.93,724.67Zm1.82,344.39c78.75.7,138.34-56.35,138.13-132.27-.19-74.26-61.82-134-138.41-134.1-75.72-.13-134.19,57.36-134.72,132.48C1363.19,1014.32,1417.65,1068.33,1498.75,1069.06Z"/><path d="M1502.88,2550.77c-153.3,0-302-30-442.09-89.27a1138.84,1138.84,0,0,1-604.36-604.36c-59.24-140.05-89.27-288.79-89.27-442.09s30-302,89.27-442.09A1138.94,1138.94,0,0,1,1060.79,368.6c140-59.24,288.79-89.27,442.09-89.27s302,30,442.09,89.27A1139.06,1139.06,0,0,1,2549.34,973c59.23,140,89.26,288.79,89.26,442.09s-30,302-89.26,442.09A1138.89,1138.89,0,0,1,1945,2461.5C1804.92,2520.74,1656.18,2550.77,1502.88,2550.77Zm0-2181.44c-576.61,0-1045.72,469.11-1045.72,1045.72S926.27,2460.77,1502.88,2460.77,2548.6,1991.66,2548.6,1415.05,2079.49,369.33,1502.88,369.33Z"/></svg>