<svg id="Layer_1" data-name="Layer 1" xmlns="http://www.w3.org/2000/svg" viewBox="0 0 4588.47 745.26"><defs><style>.cls-1{fill:#1bac72;}.cls-2{fill:#fff;opacity:0.3;}</style></defs><path class="cls-1" d="M2297.93,393.21h-1869a134.91,134.91,0,0,1-133-157c.18-1.11.38-2.22.59-3.32l.33-1.65c.22-1.1.46-2.19.71-3.28a135.58,135.58,0,0,1,4.73-15.91c.38-1,.77-2.06,1.17-3.07s.82-2,1.24-3,.87-2,1.32-3,.91-2,1.38-3,1-2,1.46-2.92,1-1.94,1.52-2.89,1.05-1.9,1.59-2.84h0c.55-.94,1.1-1.87,1.66-2.8s1.14-1.84,1.72-2.75,1.18-1.82,1.79-2.72,1.22-1.78,1.84-2.66,1.27-1.76,1.92-2.62,1.3-1.72,2-2.57,1.34-1.69,2-2.52h0c.69-.83,1.38-1.65,2.09-2.47s1.42-1.62,2.15-2.42,1.46-1.58,2.2-2.37,1.5-1.55,2.26-2.31,1.53-1.51,2.31-2.26,1.57-1.48,2.37-2.2,1.61-1.44,2.42-2.15,1.64-1.4,2.47-2.09,1.67-1.36,2.52-2h0c.84-.66,1.69-1.32,2.56-2h0c.86-.64,1.73-1.28,2.61-1.91h0c.88-.63,1.76-1.24,2.66-1.85s1.8-1.2,2.71-1.78c.7-.45,1.4-.89,2.11-1.32.44-.28.88-.54,1.32-.8.7-.43,1.42-.85,2.13-1.26.94-.54,1.88-1.07,2.84-1.59h0c.72-.39,1.44-.78,2.17-1.15.51-.27,1-.54,1.55-.79.69-.36,1.39-.7,2.09-1l2-.93q.93-.44,1.86-.84c.71-.32,1.42-.63,2.14-.93,1-.43,2-.84,3-1.24s2.05-.8,3.08-1.17a134.45,134.45,0,0,1,15.91-4.73c1-.23,2-.45,3-.65l1.93-.39c1.11-.21,2.21-.41,3.32-.59a135.36,135.36,0,0,1,22.2-1.82H2028.31a134.8,134.8,0,0,1,134.81,134.81A134.81,134.81,0,0,0,2297.93,393.21Z"/><path class="cls-2" d="M2028.66,123.6h1859a134.91,134.91,0,0,1,133,157c-.18,1.11-.38,2.22-.59,3.32l-.33,1.65c-.22,1.1-.46,2.19-.71,3.28a135.58,135.58,0,0,1-4.73,15.91c-.38,1-.77,2.06-1.17,3.07s-.82,2-1.24,3.05-.87,2-1.32,3-.91,2-1.38,3-1,2-1.46,2.92-1,1.94-1.52,2.89-1.05,1.9-1.59,2.84h0c-.55.94-1.1,1.87-1.66,2.8s-1.14,1.84-1.72,2.75-1.18,1.82-1.79,2.72-1.22,1.78-1.84,2.66-1.27,1.76-1.92,2.62-1.3,1.72-2,2.57-1.34,1.69-2,2.52h0c-.69.83-1.38,1.65-2.09,2.47s-1.42,1.62-2.15,2.42-1.46,1.58-2.2,2.37-1.5,1.55-2.26,2.31-1.53,1.51-2.31,2.26-1.57,1.48-2.37,2.2-1.61,1.44-2.42,2.15-1.64,1.4-2.47,2.09-1.67,1.36-2.52,2h0c-.84.66-1.69,1.32-2.56,2h0c-.86.64-1.73,1.28-2.61,1.91h0c-.88.63-1.76,1.24-2.66,1.85s-1.8,1.2-2.71,1.78c-.7.45-1.4.89-2.11,1.32-.44.28-.88.54-1.32.8-.7.43-1.42.85-2.13,1.26-.94.54-1.88,1.07-2.84,1.59h0c-.72.39-1.44.78-2.17,1.15-.51.27-1,.54-1.55.79-.69.36-1.39.7-2.09,1l-2,.93-1.86.84c-.71.32-1.42.63-2.14.93-1,.43-2,.84-3,1.24s-2,.8-3.08,1.17a134.45,134.45,0,0,1-15.91,4.73c-1,.23-2,.45-3,.65l-1.93.39c-1.11.21-2.21.41-3.32.59a135.36,135.36,0,0,1-22.2,1.82H2298.28A134.8,134.8,0,0,1,2163.47,258.4,134.81,134.81,0,0,0,2028.66,123.6Z"/></svg>