<svg id="Layer_1" data-name="Layer 1" xmlns="http://www.w3.org/2000/svg" viewBox="0 0 1797.4 1548.97"><defs><style>.cls-1{fill:#103089;}</style></defs><path class="cls-1" d="M1026.91,142.67c197.17-.39,359.76,160,361.17,356.19,1.41,195.17-161.72,359.23-357.82,359.88-197.32.66-358.86-158.87-361-356.5C667.12,307,830.19,143.06,1026.91,142.67Zm-1.06,626.24c154.37.71,272.19-115.11,272.35-267.74.16-150.43-117.68-269.76-267-270.41-152-.65-272.83,118.46-273.11,269.12C757.77,649.83,875.62,768.22,1025.85,768.91Z"/><path class="cls-1" d="M1045.61,920.89c63.33,2.77,141.86-3.93,220.33,4.44,184.92,19.7,348.58,180.45,369.55,365.7,2.2,19.39,10.67,44-23.92,48.06-48.56,5.69-60.07-.25-65-39.07-21-164.4-159.12-288.38-324.61-289.62q-195.71-1.47-391.45.07c-161.53,1.45-295.55,119-322.06,278.89-3.26,19.69,3.56,47.22-31.94,50-54.65,4.32-65.54-6.57-55.72-62.71,35.63-203.75,211-351.89,422-355.62C905.32,920,967.92,920.89,1045.61,920.89Z"/></svg>