<svg id="Layer_1" data-name="Layer 1" xmlns="http://www.w3.org/2000/svg" viewBox="0 0 306.87 292.26"><path d="M115.35,181.44c-10.06-2.5-16.68-8.56-19.32-19-12.34,0-24.65.15-36.95-.13-2.25-.05-4.45-1.85-6.68-2.84,1.35-2,2.3-4.55,4.12-5.91C64.51,147.6,68,139.1,69.1,130c1.38-11.18,1.6-22.52,1.82-33.81.29-14.85,5.74-27.13,17-36.85a9.44,9.44,0,0,1,1.14-1c6.11-3.74,11.86-7.22,13.68-15.43,1.23-5.54,7.37-7.65,12.65-9.45h6c8.42,2.67,14.18,7.65,15.28,17,.12,1,1.87,2.13,3.08,2.8,17.24,9.59,25.81,24.16,26.07,43.93.15,10.95.37,22,1.83,32.8,1.35,10,4.9,19.37,14.72,24.82,1.15.64,2.3,3.69,1.76,4.47a7.2,7.2,0,0,1-5,3c-11.81.25-23.64.13-35.46.14h-2.92c-2.62,10.19-9.15,16.55-19.39,19Zm43-50.2c-.29-13.09-.45-25.72-.87-38.35-.63-19.18-17.85-36-37-36.45-21.5-.45-39.78,14.82-41,34.87-.8,13.22-.72,26.48-1,39.93ZM168.05,154c-2.07-4.46-3.86-8.7-6.05-12.72-.52-.93-2.43-1.55-3.7-1.56q-40-.13-79.93,0c-1.27,0-3.16.65-3.68,1.59-2.2,4-4,8.24-6.06,12.69ZM105,162.41c2.29,7,7.58,11,13.68,10.81s11-4.18,12.92-10.51a12.43,12.43,0,0,0-1.85-.29C121.62,162.4,113.52,162.41,105,162.41Zm22.93-113.9c-2.12-4.83-5.52-7.1-10.25-6.77-4.15.29-7.33,2.34-8.58,6.77Z"/><path d="M86,94.75c.46-17.59,14.67-31.85,30.28-32.35,2.91-.09,5.7.22,6,3.65s-2.17,4.41-5.23,4.51c-11.48.38-22.66,10.45-22.8,22.82,0,2.88-1.11,5.88-4.49,5.16C87.91,98.14,86.59,95.41,86,94.75Z"/></svg>